# Blender v2.79 (sub 0) OBJ File: ''
# www.blender.org
mtllib SpiritBalloon.mtl
o mesh_118
v -0.066279 1.639235 0.226850
v 0.081137 1.641492 0.226850
v 0.111734 1.799728 0.321017
v 0.280503 1.800172 0.198399
v 0.329744 1.984107 0.234176
v 0.043228 1.533417 0.110176
v 0.081137 1.641492 0.226850
v -0.028369 1.531950 0.110176
v -0.066279 1.639235 0.226850
v -0.086292 1.529975 0.068093
v -0.066279 1.639235 0.226850
v -0.185541 1.636185 0.140201
v -0.066279 1.639235 0.226850
v -0.096876 1.798126 0.321017
v 0.111734 1.799728 0.321017
v 0.130543 1.984192 0.378904
v 0.329744 1.984107 0.234176
v 0.130543 1.984192 0.378904
v 0.329916 2.167411 0.234301
v 0.130608 2.168103 0.379106
v 0.270281 2.324568 0.190973
v 0.107830 2.325556 0.309001
v 0.155481 2.433270 0.107566
v 0.107830 2.325556 0.309001
v 0.063980 2.433989 0.174045
v -0.092971 2.329122 0.309001
v 0.026606 1.488918 -0.001092
v 0.085737 1.401401 0.001237
v 0.027784 1.490485 -0.015977
v 0.071772 1.416506 -0.045402
v -0.028369 1.527836 -0.110176
v -0.066279 1.632864 -0.226850
v 0.043228 1.529318 -0.110176
v 0.081137 1.635166 -0.226850
v 0.101151 1.531298 -0.068093
v 0.081137 1.635166 -0.226850
v 0.200400 1.638230 -0.140201
v 0.081137 1.635166 -0.226850
v 0.111734 1.795227 -0.321017
v -0.096876 1.793579 -0.321017
v -0.115684 1.985373 -0.378904
v -0.314886 1.985462 -0.234176
v -0.115684 1.985373 -0.378904
v -0.315058 2.178447 -0.234301
v -0.115750 2.177729 -0.379106
v -0.255423 2.340253 -0.190973
v -0.092971 2.339235 -0.309001
v -0.140622 2.444622 -0.107566
v -0.092971 2.339235 -0.309001
v -0.049121 2.443890 -0.174045
v 0.107830 2.335572 -0.309001
v 0.081137 1.635166 -0.226850
v -0.066279 1.632864 -0.226850
v -0.096876 1.793579 -0.321017
v -0.265644 1.793122 -0.198399
v -0.314886 1.985462 -0.234176
v 0.130608 2.168103 0.379106
v 0.107830 2.325556 0.309001
v -0.115750 2.170605 0.379106
v -0.092971 2.329122 0.309001
v -0.315058 2.174003 0.234301
v -0.092971 2.329122 0.309001
v -0.255423 2.333954 0.190973
v -0.092971 2.329122 0.309001
v -0.049121 2.436585 0.174045
v 0.063980 2.433989 0.174045
v 0.007429 2.476348 0.000000
v 0.155481 2.433270 0.107566
v 0.190431 2.434696 0.000000
v 0.270281 2.324568 0.190973
v 0.332332 2.326522 0.000000
v 0.329916 2.167411 0.234301
v 0.406045 2.168780 0.000000
v 0.329744 1.984107 0.234176
v 0.405832 1.984275 0.000000
v 0.280503 1.800172 0.198399
v 0.344967 1.799294 0.000000
v 0.200400 1.642118 0.140201
v 0.245954 1.640879 0.000000
v 0.101151 1.533823 0.068093
v 0.123275 1.533017 0.000000
v 0.024479 1.489716 0.011391
v 0.026606 1.488918 -0.001092
v 0.061415 1.414246 0.040352
v 0.085737 1.401401 0.001237
v 0.270281 2.330710 -0.190973
v 0.063980 2.441254 -0.174045
v 0.155481 2.437740 -0.107566
v 0.007429 2.476348 0.000000
v 0.155481 2.437740 -0.107566
v 0.190431 2.434696 0.000000
v 0.155481 2.437740 -0.107566
v 0.332332 2.326522 0.000000
v 0.270281 2.330710 -0.190973
v 0.406045 2.168780 0.000000
v 0.329916 2.171720 -0.234301
v 0.405832 1.984275 0.000000
v 0.329916 2.171720 -0.234301
v 0.329744 1.984636 -0.234176
v 0.130608 2.175143 -0.379106
v 0.130543 1.985056 -0.378904
v -0.115750 2.177729 -0.379106
v 0.130543 1.985056 -0.378904
v -0.115684 1.985373 -0.378904
v 0.130543 1.985056 -0.378904
v 0.111734 1.795227 -0.321017
v 0.280503 1.797413 -0.198399
v 0.200400 1.638230 -0.140201
v 0.061415 1.414246 0.040352
v 0.024479 1.489716 0.011391
v 0.028019 1.444243 0.064144
v 0.013820 1.489591 0.018985
v -0.014335 1.444757 0.068682
v 0.000303 1.489782 0.020433
v -0.048113 1.442678 0.041700
v -0.010477 1.489159 0.011821
v -0.074275 1.409324 0.004266
v -0.013454 1.488454 -0.001092
v 0.024479 1.489716 0.011391
v 0.101151 1.533823 0.068093
v 0.013820 1.489591 0.018985
v 0.101151 1.533823 0.068093
v 0.043228 1.533417 0.110176
v 0.200400 1.642118 0.140201
v 0.081137 1.641492 0.226850
v 0.280503 1.800172 0.198399
v -0.390974 1.985286 0.000000
v -0.330108 1.794036 0.000000
v -0.314886 1.984916 0.234176
v -0.265644 1.795955 0.198399
v -0.115684 1.984499 0.378904
v -0.330108 1.794036 0.000000
v -0.231095 1.633500 0.000000
v -0.265644 1.795955 0.198399
v -0.231095 1.633500 0.000000
v -0.185541 1.636185 0.140201
v -0.108417 1.528245 0.000000
v -0.086292 1.529975 0.068093
v -0.013454 1.488454 -0.001092
v -0.086292 1.529975 0.068093
v -0.010477 1.489159 0.011821
v -0.028369 1.531950 0.110176
v 0.000303 1.489782 0.020433
v 0.043228 1.533417 0.110176
v 0.013820 1.489591 0.018985
v -0.009406 1.488264 -0.013228
v -0.086292 1.527425 -0.068093
v -0.000406 1.489548 -0.024800
v -0.086292 1.527425 -0.068093
v -0.028369 1.527836 -0.110176
v -0.185541 1.632225 -0.140201
v -0.066279 1.632864 -0.226850
v -0.265644 1.793122 -0.198399
v -0.255423 2.333954 0.190973
v -0.049121 2.436585 0.174045
v -0.140622 2.440087 0.107566
v 0.007429 2.476348 0.000000
v -0.140622 2.440087 0.107566
v -0.175572 2.443163 0.000000
v -0.140622 2.440087 0.107566
v -0.317473 2.338220 0.000000
v -0.255423 2.333954 0.190973
v -0.391187 2.177011 0.000000
v -0.315058 2.174003 0.234301
v -0.390974 1.985286 0.000000
v -0.315058 2.174003 0.234301
v -0.314886 1.984916 0.234176
v -0.115750 2.170605 0.379106
v -0.115684 1.984499 0.378904
v 0.130608 2.168103 0.379106
v -0.115684 1.984499 0.378904
v 0.130543 1.984192 0.378904
v -0.115684 1.984499 0.378904
v -0.096876 1.798126 0.321017
v -0.265644 1.795955 0.198399
v -0.185541 1.636185 0.140201
v -0.115750 2.177729 -0.379106
v -0.092971 2.339235 -0.309001
v 0.130608 2.175143 -0.379106
v 0.107830 2.335572 -0.309001
v 0.329916 2.171720 -0.234301
v 0.107830 2.335572 -0.309001
v 0.270281 2.330710 -0.190973
v 0.107830 2.335572 -0.309001
v 0.063980 2.441254 -0.174045
v -0.049121 2.443890 -0.174045
v 0.007429 2.476348 0.000000
v -0.140622 2.444622 -0.107566
v -0.175572 2.443163 0.000000
v -0.255423 2.340253 -0.190973
v -0.317473 2.338220 0.000000
v -0.315058 2.178447 -0.234301
v -0.391187 2.177011 0.000000
v -0.314886 1.985462 -0.234176
v -0.390974 1.985286 0.000000
v -0.265644 1.793122 -0.198399
v -0.330108 1.794036 0.000000
v -0.185541 1.632225 -0.140201
v -0.231095 1.633500 0.000000
v -0.086292 1.527425 -0.068093
v -0.108417 1.528245 0.000000
v -0.009406 1.488264 -0.013228
v -0.013454 1.488454 -0.001092
v -0.061593 1.413092 -0.033760
v -0.074275 1.409324 0.004266
v 0.344967 1.799294 0.000000
v 0.245954 1.640879 0.000000
v 0.280503 1.797413 -0.198399
v 0.245954 1.640879 0.000000
v 0.200400 1.638230 -0.140201
v 0.123275 1.533017 0.000000
v 0.101151 1.531298 -0.068093
v 0.026606 1.488918 -0.001092
v 0.101151 1.531298 -0.068093
v 0.027784 1.490485 -0.015977
v 0.043228 1.529318 -0.110176
v 0.014437 1.489358 -0.023065
v -0.028369 1.527836 -0.110176
v -0.000406 1.489548 -0.024800
v 0.405832 1.984275 0.000000
v 0.344967 1.799294 0.000000
v 0.329744 1.984636 -0.234176
v 0.280503 1.797413 -0.198399
v 0.130543 1.985056 -0.378904
v -0.061593 1.413092 -0.033760
v -0.009406 1.488264 -0.013228
v -0.016559 1.443739 -0.073050
v -0.000406 1.489548 -0.024800
v 0.029949 1.412840 -0.067611
v 0.014437 1.489358 -0.023065
v 0.071772 1.416506 -0.045402
v 0.027784 1.490485 -0.015977
vt 0.744027 0.634639
vt 0.738174 0.363044
vt 0.641968 0.352921
vt 0.629155 0.116056
vt 0.483537 0.095707
vt 0.830707 0.396043
vt 0.738174 0.363044
vt 0.830707 0.591584
vt 0.744027 0.634639
vt 0.826079 0.749780
vt 0.744027 0.634639
vt 0.764238 0.849069
vt 0.744027 0.634639
vt 0.641968 0.645702
vt 0.641968 0.352921
vt 0.498659 0.345574
vt 0.483537 0.095707
vt 0.498659 0.345574
vt 0.321878 0.095491
vt 0.337009 0.345491
vt 0.180292 0.170294
vt 0.192625 0.374064
vt 0.079998 0.314293
vt 0.192625 0.374064
vt 0.086944 0.429066
vt 0.192625 0.625936
vt 0.894037 0.440715
vt 0.996674 0.440715
vt 0.894037 0.559285
vt 0.996674 0.559285
vt 0.812315 0.615533
vt 0.728418 0.648532
vt 0.812315 0.419992
vt 0.728418 0.379864
vt 0.817835 0.261796
vt 0.728418 0.379864
vt 0.739217 0.162506
vt 0.728418 0.379864
vt 0.573911 0.365874
vt 0.573911 0.658655
vt 0.415444 0.666002
vt 0.433482 0.915869
vt 0.415444 0.666002
vt 0.269899 0.916085
vt 0.251851 0.666085
vt 0.136634 0.841282
vt 0.121924 0.637513
vt 0.054376 0.697283
vt 0.121924 0.637513
vt 0.046091 0.582510
vt 0.121924 0.385640
vt 0.728418 0.379864
vt 0.728418 0.648532
vt 0.573911 0.658655
vt 0.589193 0.895520
vt 0.433482 0.915869
vt 0.337009 0.345491
vt 0.192625 0.374064
vt 0.337009 0.654509
vt 0.192625 0.625936
vt 0.321878 0.904508
vt 0.192625 0.625936
vt 0.180292 0.829706
vt 0.192625 0.625936
vt 0.086944 0.570934
vt 0.086944 0.429066
vt 0.014709 0.500000
vt 0.079998 0.314293
vt 0.068758 0.270454
vt 0.180292 0.170294
vt 0.160338 0.092461
vt 0.321878 0.095491
vt 0.297397 0.000000
vt 0.483537 0.095707
vt 0.459068 0.000267
vt 0.629155 0.116056
vt 0.608425 0.025582
vt 0.737899 0.157393
vt 0.762758 0.075833
vt 0.826079 0.237847
vt 0.818591 0.177422
vt 0.898681 0.340663
vt 0.897205 0.289873
vt 0.993612 0.287917
vt 0.995082 0.223976
vt 0.136634 0.181870
vt 0.046091 0.440642
vt 0.054376 0.325869
vt 0.013357 0.511576
vt 0.054376 0.325869
vt 0.067783 0.282030
vt 0.054376 0.325869
vt 0.160436 0.104037
vt 0.136634 0.181870
vt 0.294712 0.002796
vt 0.269899 0.107068
vt 0.459742 0.003063
vt 0.269899 0.107068
vt 0.433482 0.107283
vt 0.251851 0.357068
vt 0.415444 0.357150
vt 0.251851 0.666085
vt 0.415444 0.357150
vt 0.415444 0.666002
vt 0.415444 0.357150
vt 0.573911 0.365874
vt 0.589193 0.129009
vt 0.739217 0.162506
vt 0.993612 0.287917
vt 0.898681 0.340663
vt 0.993604 0.410345
vt 0.894305 0.439654
vt 0.993607 0.565610
vt 0.894301 0.529938
vt 0.993613 0.689434
vt 0.894289 0.601939
vt 0.993622 0.723634
vt 0.894272 0.621825
vt 0.898681 0.340663
vt 0.826079 0.237847
vt 0.894305 0.439654
vt 0.826079 0.237847
vt 0.830707 0.396043
vt 0.737899 0.157393
vt 0.738174 0.363044
vt 0.629155 0.116056
vt 0.459068 0.999733
vt 0.608425 0.973041
vt 0.483537 0.904293
vt 0.629155 0.882567
vt 0.498659 0.654426
vt 0.608425 0.973041
vt 0.755442 0.942336
vt 0.629155 0.882567
vt 0.755442 0.942336
vt 0.764238 0.849069
vt 0.818591 0.810205
vt 0.826079 0.749780
vt 0.894272 0.621825
vt 0.826079 0.749780
vt 0.894289 0.601939
vt 0.830707 0.591584
vt 0.894301 0.529938
vt 0.830707 0.396043
vt 0.894305 0.439654
vt 0.894338 0.634319
vt 0.817835 0.773729
vt 0.894296 0.574205
vt 0.817835 0.773729
vt 0.812315 0.615533
vt 0.739217 0.865889
vt 0.728418 0.648532
vt 0.589193 0.895520
vt 0.180292 0.829706
vt 0.086944 0.570934
vt 0.079998 0.685707
vt 0.014709 0.500000
vt 0.079998 0.685707
vt 0.068758 0.729546
vt 0.079998 0.685707
vt 0.160338 0.907539
vt 0.180292 0.829706
vt 0.297396 1.000000
vt 0.321878 0.904508
vt 0.459068 0.999733
vt 0.321878 0.904508
vt 0.483537 0.904293
vt 0.337009 0.654509
vt 0.498659 0.654426
vt 0.337009 0.345491
vt 0.498659 0.654426
vt 0.498659 0.345574
vt 0.498659 0.654426
vt 0.641968 0.645702
vt 0.629155 0.882567
vt 0.764238 0.849069
vt 0.251851 0.666085
vt 0.121924 0.637513
vt 0.251851 0.357068
vt 0.121924 0.385640
vt 0.269899 0.107068
vt 0.121924 0.385640
vt 0.136634 0.181870
vt 0.121924 0.385640
vt 0.046091 0.440642
vt 0.046091 0.582510
vt 0.013357 0.511576
vt 0.054376 0.697283
vt 0.067783 0.741123
vt 0.136634 0.841282
vt 0.160436 0.919115
vt 0.269899 0.916085
vt 0.299101 0.998407
vt 0.433482 0.915869
vt 0.461205 0.998140
vt 0.589193 0.895520
vt 0.613921 0.980141
vt 0.739217 0.865889
vt 0.756691 0.948912
vt 0.817835 0.773729
vt 0.826767 0.834154
vt 0.894338 0.634319
vt 0.894362 0.661353
vt 0.993609 0.710975
vt 0.993596 0.757466
vt 0.613921 0.026828
vt 0.756692 0.079483
vt 0.589193 0.129009
vt 0.756692 0.079483
vt 0.739217 0.162506
vt 0.826767 0.201371
vt 0.817835 0.261796
vt 0.903148 0.278187
vt 0.817835 0.261796
vt 0.894312 0.385915
vt 0.812315 0.419992
vt 0.894307 0.475067
vt 0.812315 0.615533
vt 0.894296 0.574205
vt 0.459742 0.003063
vt 0.613921 0.026828
vt 0.433482 0.107283
vt 0.589193 0.129009
vt 0.415444 0.357150
vt 0.993609 0.710975
vt 0.894338 0.634319
vt 0.993632 0.607592
vt 0.894296 0.574205
vt 0.993626 0.437100
vt 0.894307 0.475067
vt 0.993623 0.283780
vt 0.894312 0.385915
vn 0.0078 -0.5125 0.8586
vn 0.1870 -0.5288 0.8278
vn 0.4230 -0.4710 0.7741
vn 0.5465 -0.3708 0.7508
vn 0.5612 -0.3002 0.7713
vn 0.0151 -0.7360 0.6768
vn 0.0123 -0.7347 0.6782
vn -0.1887 -0.7533 0.6300
vn -0.0416 -0.4237 0.9048
vn -0.3818 -0.7382 0.5561
vn -0.0979 -0.1875 0.9774
vn -0.4305 -0.6599 0.6157
vn -0.2196 -0.3468 0.9118
vn -0.1098 -0.4696 0.8760
vn 0.1656 -0.3626 0.9171
vn 0.2300 -0.1863 0.9552
vn 0.5851 -0.0944 0.8054
vn 0.3091 -0.0005 0.9510
vn 0.5766 0.1983 0.7926
vn 0.5767 0.1988 0.7924
vn 0.4785 0.5856 0.6543
vn 0.3293 0.3607 0.8726
vn 0.3719 0.7790 0.5047
vn 0.0670 0.4697 0.8802
vn 0.2501 0.7928 0.5557
vn 0.0139 0.7817 0.6235
vn 0.8207 0.5578 0.1237
vn 0.8418 0.5370 -0.0550
vn 0.8299 0.5535 0.0701
vn 0.8425 0.5327 -0.0797
vn 0.0153 -0.7407 -0.6717
vn 0.0126 -0.7419 -0.6703
vn 0.2166 -0.7564 -0.6171
vn 0.1254 -0.9263 0.3553
vn 0.4109 -0.7383 -0.5348
vn 0.1445 -0.2621 0.9541
vn 0.4540 -0.6572 -0.6016
vn 0.5347 -0.8066 -0.2520
vn 0.1212 -0.4640 -0.8775
vn -0.1599 -0.3550 -0.9210
vn -0.7588 -0.5907 -0.2744
vn -0.5853 -0.0925 -0.8055
vn -0.9510 -0.0017 0.3090
vn -0.5761 0.1941 -0.7939
vn -0.5760 0.1936 -0.7942
vn -0.4732 0.5880 -0.6559
vn -0.6715 0.7386 -0.0593
vn -0.3562 0.7907 -0.4979
vn -0.1014 0.9380 0.3312
vn -0.2296 0.8038 -0.5488
vn 0.0143 0.7879 -0.6156
vn 0.0079 -0.5044 -0.8634
vn -0.1781 -0.5225 -0.8338
vn -0.4208 -0.4626 -0.7803
vn -0.5473 -0.3616 -0.7547
vn -0.5623 -0.2881 -0.7750
vn 0.0041 0.4072 0.9133
vn 0.0053 0.4058 0.9139
vn -0.2726 0.4224 0.8644
vn -0.1341 0.2708 0.9532
vn -0.5316 0.4024 0.7453
vn -0.0973 0.0733 0.9925
vn -0.4829 0.5429 0.6870
vn -0.1515 0.4787 0.8648
vn -0.0727 0.8686 0.4901
vn 0.0689 0.9447 0.3207
vn 0.1301 0.9770 0.1687
vn 0.3643 0.9158 0.1690
vn 0.4502 0.8790 0.1571
vn 0.7690 0.5856 0.2562
vn 0.7687 0.5865 0.2551
vn 0.9318 0.1976 0.3044
vn 0.9318 0.1986 0.3039
vn 0.9406 -0.1476 0.3055
vn 0.9406 -0.1471 0.3059
vn 0.8716 -0.3992 0.2845
vn 0.8715 -0.3988 0.2853
vn 0.7493 -0.6139 0.2482
vn 0.7488 -0.6142 0.2490
vn 0.5539 -0.8108 0.1889
vn 0.5524 -0.8120 0.1885
vn 0.9079 -0.3769 0.1831
vn 0.9288 -0.2979 0.2204
vn 0.7920 0.5337 0.2964
vn 0.7837 0.5378 0.3107
vn 0.3820 0.7871 -0.4842
vn 0.2448 0.9258 -0.2879
vn 0.3097 0.9351 0.1719
vn 0.1843 0.9780 -0.0974
vn 0.0844 0.3707 0.9249
vn 0.4552 0.8818 -0.1230
vn 0.4961 0.6485 0.5773
vn 0.7750 0.5854 -0.2381
vn 0.7729 0.5876 -0.2395
vn 0.9336 0.1959 -0.2999
vn 0.8558 0.2669 0.4431
vn 0.9510 -0.0011 -0.3090
vn 1.0000 -0.0015 0.0026
vn 0.8092 -0.0011 -0.5875
vn 0.3066 -0.0011 -0.9518
vn 0.8351 -0.0023 -0.5501
vn 0.0000 -0.0010 -1.0000
vn 0.0000 -0.0003 1.0000
vn -0.0001 -0.0929 -0.9957
vn 0.4818 -0.7308 -0.4835
vn 0.4114 -0.3577 -0.8383
vn 0.5320 -0.4383 -0.7244
vn 0.5099 -0.5099 -0.6928
vn 0.7535 0.5221 0.3995
vn 0.5370 0.6564 0.5298
vn 0.4729 0.6641 0.5790
vn 0.2521 0.7211 0.6453
vn -0.2029 0.7459 0.6343
vn -0.1945 0.7456 0.6374
vn -0.6832 0.6958 0.2214
vn -0.6500 0.6887 0.3211
vn -0.7818 0.6233 0.0149
vn -0.7795 0.6090 0.1464
vn 0.2595 -0.9003 0.3494
vn 0.0184 -0.0640 0.9978
vn 0.2596 -0.9003 0.3492
vn 0.2619 -0.6043 0.7524
vn 0.3468 -0.8117 0.4700
vn 0.4660 -0.6142 0.6368
vn 0.4455 -0.6567 0.6084
vn 0.5066 -0.5121 0.6936
vn -0.9104 -0.2897 0.2953
vn -0.9095 -0.2912 0.2965
vn -0.7703 -0.3058 0.5596
vn -0.8163 -0.3055 0.4901
vn -0.5624 -0.2929 0.7732
vn -0.8192 -0.5053 0.2711
vn -0.3728 -0.2299 0.8990
vn -0.8177 -0.5069 0.2727
vn -0.5136 -0.4785 0.7122
vn -0.7458 -0.6156 0.2546
vn -0.5334 -0.8235 0.1930
vn -0.4422 -0.6688 0.5976
vn -0.3848 -0.9120 0.1422
vn -0.1386 -0.5267 0.8386
vn -0.3144 -0.9176 0.2431
vn -0.1034 -0.9126 0.3956
vn -0.1007 -0.9138 0.3935
vn 0.0198 -0.9028 0.4295
vn 0.0327 -0.9049 0.4243
vn -0.2543 -0.9194 -0.2998
vn -0.0237 -0.0856 0.9960
vn -0.2479 -0.9175 -0.3110
vn -0.3766 -0.9227 0.0827
vn -0.3297 -0.8236 -0.4614
vn -0.4607 -0.6161 -0.6388
vn -0.4389 -0.6607 -0.6089
vn -0.5056 -0.5048 -0.6996
vn -0.3465 0.7820 0.5181
vn -0.2046 0.9215 0.3301
vn -0.1935 0.6811 0.7061
vn -0.1397 0.9805 0.1382
vn -0.0642 0.3539 0.9330
vn -0.4261 0.8897 0.1639
vn -0.4017 0.5450 0.7359
vn -0.7650 0.5881 0.2625
vn -0.7674 0.5857 0.2610
vn -0.9315 0.1965 0.3062
vn -0.6384 0.1953 0.7444
vn -0.9510 -0.0010 0.3090
vn -0.4977 -0.0007 0.8673
vn -0.8088 -0.0011 0.5880
vn -0.3113 -0.0011 0.9503
vn -0.2376 -0.0007 0.9713
vn 0.0000 -0.0011 1.0000
vn 0.0000 -0.0002 1.0000
vn -0.0001 -0.0940 0.9955
vn -0.1164 -0.1815 0.9765
vn -0.4057 -0.3598 0.8402
vn -0.5242 -0.4398 0.7292
vn -0.5023 -0.5070 0.7004
vn 0.0042 0.3977 -0.9175
vn 0.0054 0.3991 -0.9169
vn 0.2884 0.4167 -0.8620
vn 0.3926 0.7565 -0.5230
vn 0.5444 0.4024 -0.7360
vn 0.1314 0.0975 0.9865
vn 0.5048 0.5411 -0.6725
vn 0.3144 0.8716 0.3761
vn 0.1106 0.8766 -0.4684
vn -0.0256 0.9580 -0.2856
vn -0.0861 0.9879 -0.1292
vn -0.3373 0.9315 -0.1362
vn -0.4313 0.8929 -0.1288
vn -0.7711 0.5881 -0.2439
vn -0.7717 0.5869 -0.2451
vn -0.9333 0.1948 -0.3016
vn -0.9333 0.1938 -0.3021
vn -0.9414 -0.1416 -0.3060
vn -0.9415 -0.1422 -0.3056
vn -0.8758 -0.3908 -0.2832
vn -0.8759 -0.3911 -0.2824
vn -0.7503 -0.6164 -0.2389
vn -0.7508 -0.6160 -0.2381
vn -0.5391 -0.8257 -0.1658
vn -0.5408 -0.8246 -0.1658
vn -0.8957 -0.3338 -0.2936
vn -0.9148 -0.2826 -0.2886
vn -0.7810 0.5889 -0.2078
vn -0.7830 0.5881 -0.2028
vn 0.8186 -0.5116 -0.2611
vn 0.4778 -0.2986 0.8261
vn 0.8201 -0.5100 -0.2592
vn 0.6526 -0.5936 0.4707
vn 0.7537 -0.6145 -0.2327
vn 0.5588 -0.8133 -0.1623
vn 0.5333 -0.7698 0.3507
vn 0.4353 -0.8965 -0.0823
vn 0.2248 -0.7147 0.6622
vn 0.3667 -0.9106 -0.1902
vn 0.1461 -0.9161 -0.3732
vn 0.1408 -0.9151 -0.3778
vn 0.0208 -0.9107 -0.4125
vn 0.0374 -0.9072 -0.4190
vn 0.9075 -0.2986 -0.2953
vn 0.9084 -0.2971 -0.2942
vn 0.7691 -0.3099 -0.5589
vn 0.8163 -0.3081 -0.4886
vn 0.5611 -0.2953 -0.7732
vn -0.7183 0.5965 -0.3580
vn -0.6683 0.6327 -0.3910
vn -0.1469 0.7329 -0.6643
vn -0.2320 0.6820 -0.6935
vn 0.3797 0.5391 -0.7518
vn 0.2381 0.5245 -0.8174
vn 0.3638 0.5227 -0.7710
vn 0.3648 0.5232 -0.7701
usemtl 000000003032BC38.png
s 1
f 1/1/1 2/2/2 3/3/3
f 2/2/2 4/4/4 3/3/3
f 3/3/3 4/4/4 5/5/5
f 6/6/6 7/7/7 8/8/8
f 7/7/7 9/9/9 8/8/8
f 8/8/8 9/9/9 10/10/10
f 9/9/9 11/11/11 10/10/10
f 10/10/10 11/11/11 12/12/12
f 11/11/11 13/13/13 12/12/12
f 12/12/12 13/13/13 14/14/14
f 13/13/13 15/15/15 14/14/14
f 14/14/14 15/15/15 16/16/16
f 15/15/15 17/17/17 16/16/16
f 16/16/16 17/17/17 18/18/18
f 17/17/17 19/19/19 18/18/18
f 18/18/18 19/19/19 20/20/20
f 19/19/19 21/21/21 20/20/20
f 20/20/20 21/21/21 22/22/22
f 21/21/21 23/23/23 22/22/22
f 22/22/22 23/23/23 24/24/24
f 23/23/23 25/25/25 24/24/24
f 24/24/24 25/25/25 26/26/26
f 27/27/27 28/28/28 29/29/29
f 28/28/28 30/30/30 29/29/29
f 31/31/31 32/32/32 33/33/33
f 32/32/32 34/34/34 33/33/33
f 33/33/33 34/34/34 35/35/35
f 34/34/34 36/36/36 35/35/35
f 35/35/35 36/36/36 37/37/37
f 36/36/36 38/38/38 37/37/37
f 37/37/37 38/38/38 39/39/39
f 38/38/38 40/40/40 39/39/39
f 39/39/39 40/40/40 41/41/41
f 40/40/40 42/42/42 41/41/41
f 41/41/41 42/42/42 43/43/43
f 42/42/42 44/44/44 43/43/43
f 43/43/43 44/44/44 45/45/45
f 44/44/44 46/46/46 45/45/45
f 45/45/45 46/46/46 47/47/47
f 46/46/46 48/48/48 47/47/47
f 47/47/47 48/48/48 49/49/49
f 48/48/48 50/50/50 49/49/49
f 49/49/49 50/50/50 51/51/51
f 52/52/52 53/53/53 54/54/54
f 53/53/53 55/55/55 54/54/54
f 54/54/54 55/55/55 56/56/56
f 57/57/57 58/58/58 59/59/59
f 58/58/58 60/60/60 59/59/59
f 59/59/59 60/60/60 61/61/61
f 60/60/60 62/62/62 61/61/61
f 61/61/61 62/62/62 63/63/63
f 62/62/62 64/64/64 63/63/63
f 63/63/63 64/64/64 65/65/65
f 64/64/64 66/66/66 65/65/65
f 65/65/65 66/66/66 67/67/67
f 66/66/66 68/68/68 67/67/67
f 67/67/67 68/68/68 69/69/69
f 68/68/68 70/70/70 69/69/69
f 69/69/69 70/70/70 71/71/71
f 70/70/70 72/72/72 71/71/71
f 71/71/71 72/72/72 73/73/73
f 72/72/72 74/74/74 73/73/73
f 73/73/73 74/74/74 75/75/75
f 74/74/74 76/76/76 75/75/75
f 75/75/75 76/76/76 77/77/77
f 76/76/76 78/78/78 77/77/77
f 77/77/77 78/78/78 79/79/79
f 78/78/78 80/80/80 79/79/79
f 79/79/79 80/80/80 81/81/81
f 80/80/80 82/82/82 81/81/81
f 81/81/81 82/82/82 83/83/83
f 82/82/82 84/84/84 83/83/83
f 83/83/83 84/84/84 85/85/85
f 86/86/86 87/87/87 88/88/88
f 87/87/87 89/89/89 88/88/88
f 88/88/88 89/89/89 90/90/90
f 89/89/89 91/91/91 90/90/90
f 90/90/90 91/91/91 92/92/92
f 91/91/91 93/93/93 92/92/92
f 92/92/92 93/93/93 94/94/94
f 93/93/93 95/95/95 94/94/94
f 94/94/94 95/95/95 96/96/96
f 95/95/95 97/97/97 96/96/96
f 96/96/96 97/97/97 98/98/98
f 97/97/97 99/99/99 98/98/98
f 98/98/98 99/99/99 100/100/100
f 99/99/99 101/101/101 100/100/100
f 100/100/100 101/101/101 102/102/102
f 101/101/101 103/103/103 102/102/102
f 102/102/102 103/103/103 104/104/104
f 103/103/103 105/105/105 104/104/104
f 104/104/104 105/105/105 106/106/106
f 105/105/105 107/107/107 106/106/106
f 106/106/106 107/107/107 108/108/108
f 109/109/109 110/110/110 111/111/111
f 110/110/110 112/112/112 111/111/111
f 111/111/111 112/112/112 113/113/113
f 112/112/112 114/114/114 113/113/113
f 113/113/113 114/114/114 115/115/115
f 114/114/114 116/116/116 115/115/115
f 115/115/115 116/116/116 117/117/117
f 116/116/116 118/118/118 117/117/117
f 119/119/119 120/120/120 121/121/121
f 120/120/120 122/122/122 121/121/121
f 121/121/121 122/122/122 123/123/123
f 122/122/122 124/124/124 123/123/123
f 123/123/123 124/124/124 125/125/125
f 124/124/124 126/126/126 125/125/125
f 127/127/127 128/128/128 129/129/129
f 128/128/128 130/130/130 129/129/129
f 129/129/129 130/130/130 131/131/131
f 132/132/132 133/133/133 134/134/134
f 133/133/133 135/135/135 134/134/134
f 134/134/134 135/135/135 136/136/136
f 135/135/135 137/137/137 136/136/136
f 136/136/136 137/137/137 138/138/138
f 137/137/137 139/139/139 138/138/138
f 138/138/138 139/139/139 140/140/140
f 139/139/139 141/141/141 140/140/140
f 140/140/140 141/141/141 142/142/142
f 141/141/141 143/143/143 142/142/142
f 142/142/142 143/143/143 144/144/144
f 143/143/143 145/145/145 144/144/144
f 146/146/146 147/147/147 148/148/148
f 147/147/147 149/149/149 148/148/148
f 148/148/148 149/149/149 150/150/150
f 149/149/149 151/151/151 150/150/150
f 150/150/150 151/151/151 152/152/152
f 151/151/151 153/153/153 152/152/152
f 154/154/154 155/155/155 156/156/156
f 155/155/155 157/157/157 156/156/156
f 156/156/156 157/157/157 158/158/158
f 157/157/157 159/159/159 158/158/158
f 158/158/158 159/159/159 160/160/160
f 159/159/159 161/161/161 160/160/160
f 160/160/160 161/161/161 162/162/162
f 161/161/161 163/163/163 162/162/162
f 162/162/162 163/163/163 164/164/164
f 163/163/163 165/165/165 164/164/164
f 164/164/164 165/165/165 166/166/166
f 165/165/165 167/167/167 166/166/166
f 166/166/166 167/167/167 168/168/168
f 167/167/167 169/169/169 168/168/168
f 168/168/168 169/169/169 170/170/170
f 169/169/169 171/171/171 170/170/170
f 170/170/170 171/171/171 172/172/172
f 171/171/171 173/173/173 172/172/172
f 172/172/172 173/173/173 174/174/174
f 173/173/173 175/175/175 174/174/174
f 174/174/174 175/175/175 176/176/176
f 177/177/177 178/178/178 179/179/179
f 178/178/178 180/180/180 179/179/179
f 179/179/179 180/180/180 181/181/181
f 180/180/180 182/182/182 181/181/181
f 181/181/181 182/182/182 183/183/183
f 182/182/182 184/184/184 183/183/183
f 183/183/183 184/184/184 185/185/185
f 184/184/184 186/186/186 185/185/185
f 185/185/185 186/186/186 187/187/187
f 186/186/186 188/188/188 187/187/187
f 187/187/187 188/188/188 189/189/189
f 188/188/188 190/190/190 189/189/189
f 189/189/189 190/190/190 191/191/191
f 190/190/190 192/192/192 191/191/191
f 191/191/191 192/192/192 193/193/193
f 192/192/192 194/194/194 193/193/193
f 193/193/193 194/194/194 195/195/195
f 194/194/194 196/196/196 195/195/195
f 195/195/195 196/196/196 197/197/197
f 196/196/196 198/198/198 197/197/197
f 197/197/197 198/198/198 199/199/199
f 198/198/198 200/200/200 199/199/199
f 199/199/199 200/200/200 201/201/201
f 200/200/200 202/202/202 201/201/201
f 201/201/201 202/202/202 203/203/203
f 202/202/202 204/204/204 203/203/203
f 203/203/203 204/204/204 205/205/205
f 206/206/206 207/207/207 208/208/208
f 207/207/207 209/209/209 208/208/208
f 208/208/208 209/209/209 210/210/210
f 209/209/209 211/211/211 210/210/210
f 210/210/210 211/211/211 212/212/212
f 211/211/211 213/213/213 212/212/212
f 212/212/212 213/213/213 214/214/214
f 213/213/213 215/215/215 214/214/214
f 214/214/214 215/215/215 216/216/216
f 215/215/215 217/217/217 216/216/216
f 216/216/216 217/217/217 218/218/218
f 217/217/217 219/219/219 218/218/218
f 220/220/220 221/221/221 222/222/222
f 221/221/221 223/223/223 222/222/222
f 222/222/222 223/223/223 224/224/224
f 225/225/225 226/226/226 227/227/227
f 226/226/226 228/228/228 227/227/227
f 227/227/227 228/228/228 229/229/229
f 228/228/228 230/230/230 229/229/229
f 229/229/229 230/230/230 231/231/231
f 230/230/230 232/232/232 231/231/231
o mesh_119
v 0.000071 0.000093 -0.015937
v 0.000071 0.188371 -0.015937
v 0.011318 0.000093 -0.011278
v 0.011318 0.188371 -0.011278
v 0.015978 0.188371 -0.000030
v 0.011673 0.375243 -0.005952
v 0.011318 0.188371 0.011225
v 0.006335 0.375243 0.006941
v 0.000071 0.188371 0.015884
v -0.006549 0.375243 0.012278
v -0.011177 0.188371 0.011225
v -0.019433 0.375243 0.006941
v -0.015837 0.188371 -0.000030
v -0.024771 0.375243 -0.005952
v -0.011177 0.188371 -0.011278
v -0.019433 0.375243 -0.018836
v 0.000071 0.188371 -0.015937
v -0.006549 0.375243 -0.024174
v 0.000071 1.126400 -0.025075
v 0.000071 0.938215 -0.012948
v -0.015391 1.126400 -0.018670
v -0.009063 0.938215 -0.009164
v -0.021796 1.126400 -0.003208
v -0.012848 0.938215 -0.000029
v -0.015391 1.126400 0.012263
v -0.009063 0.938215 0.009111
v 0.000071 1.126400 0.018668
v 0.000071 0.938215 0.012895
v 0.015532 1.126400 0.012263
v 0.009205 0.938215 0.009111
v 0.021938 1.126400 -0.003208
v 0.012989 0.938215 -0.000029
v 0.021938 1.126400 -0.003208
v 0.009205 0.938215 -0.009164
v 0.015532 1.126400 -0.018670
v 0.009205 0.938215 -0.009164
v 0.000071 1.126400 -0.025075
v 0.009205 0.938215 -0.009164
v 0.000071 0.938215 -0.012948
v 0.009205 0.938215 -0.009164
v 0.009717 0.750968 -0.006473
v 0.012989 0.938215 -0.000029
v 0.013713 0.750968 0.003173
v 0.012989 0.938215 -0.000029
v 0.009717 0.750968 0.012826
v 0.009205 0.938215 0.009111
v 0.000071 0.750968 0.016822
v 0.000071 0.938215 0.012895
v -0.009575 0.750968 0.012826
v -0.009063 0.938215 0.009111
v -0.013572 0.750968 0.003173
v -0.012848 0.938215 -0.000029
v -0.009575 0.750968 -0.006473
v -0.009063 0.938215 -0.009164
v 0.000071 0.750968 -0.010469
v 0.000071 0.938215 -0.012948
v 0.000071 1.501930 -0.015937
v 0.001666 1.313745 -0.022062
v -0.011177 1.501930 -0.011278
v -0.009581 1.313745 -0.017403
v -0.015837 1.501930 -0.000030
v -0.014241 1.313745 -0.006155
v -0.011177 1.501930 0.011225
v -0.009581 1.313745 0.005100
v 0.000071 1.501930 0.015884
v 0.001666 1.313745 0.009760
v 0.011318 1.501930 0.011225
v 0.012914 1.313745 0.005100
v 0.015978 1.501930 -0.000030
v 0.017574 1.313745 -0.006155
v 0.015978 1.501930 -0.000030
v 0.012914 1.313745 -0.017403
v 0.011318 1.501930 -0.011278
v 0.012914 1.313745 -0.017403
v 0.000071 1.501930 -0.015937
v 0.001666 1.313745 -0.022062
v 0.001666 1.313745 -0.022062
v 0.000071 1.126400 -0.025075
v -0.009581 1.313745 -0.017403
v -0.015391 1.126400 -0.018670
v -0.014241 1.313745 -0.006155
v -0.021796 1.126400 -0.003208
v -0.009581 1.313745 0.005100
v -0.015391 1.126400 0.012263
v 0.001666 1.313745 0.009760
v 0.000071 1.126400 0.018668
v 0.012914 1.313745 0.005100
v 0.015532 1.126400 0.012263
v 0.017574 1.313745 -0.006155
v 0.021938 1.126400 -0.003208
v 0.017574 1.313745 -0.006155
v 0.015532 1.126400 -0.018670
v 0.012914 1.313745 -0.017403
v 0.015532 1.126400 -0.018670
v 0.001666 1.313745 -0.022062
v 0.000071 1.126400 -0.025075
v 0.000071 0.188371 -0.015937
v -0.006549 0.375243 -0.024174
v 0.011318 0.188371 -0.011278
v -0.006549 0.375243 -0.024174
v 0.006335 0.375243 -0.018836
v 0.003318 0.561305 -0.022136
v 0.006335 0.375243 -0.018836
v 0.014565 0.561305 -0.017476
v 0.019225 0.561305 -0.006228
v 0.013713 0.750968 0.003173
v 0.014565 0.561305 0.005027
v 0.009717 0.750968 0.012826
v 0.003318 0.561305 0.009686
v 0.000071 0.750968 0.016822
v -0.007930 0.561305 0.005027
v -0.009575 0.750968 0.012826
v -0.012590 0.561305 -0.006228
v -0.013572 0.750968 0.003173
v -0.007930 0.561305 -0.017476
v -0.009575 0.750968 -0.006473
v 0.003318 0.561305 -0.022136
v 0.000071 0.750968 -0.010469
v 0.011318 0.188371 -0.011278
v 0.006335 0.375243 -0.018836
v 0.011673 0.375243 -0.005952
v 0.019225 0.561305 -0.006228
v 0.006335 0.375243 0.006941
v 0.014565 0.561305 0.005027
v -0.006549 0.375243 0.012278
v 0.003318 0.561305 0.009686
v -0.019433 0.375243 0.006941
v -0.007930 0.561305 0.005027
v -0.024771 0.375243 -0.005952
v -0.012590 0.561305 -0.006228
v -0.019433 0.375243 -0.018836
v -0.007930 0.561305 -0.017476
v -0.006549 0.375243 -0.024174
v 0.003318 0.561305 -0.022136
v 0.011318 0.000093 -0.011278
v 0.015978 0.188371 -0.000030
v 0.015978 0.000093 -0.000030
v 0.015978 0.188371 -0.000030
v 0.011318 0.000093 0.011225
v 0.011318 0.188371 0.011225
v 0.000071 0.000093 0.015884
v 0.000071 0.188371 0.015884
v -0.011177 0.000093 0.011225
v -0.011177 0.188371 0.011225
v -0.015837 0.000093 -0.000030
v -0.015837 0.188371 -0.000030
v -0.011177 0.000093 -0.011278
v -0.011177 0.188371 -0.011278
v 0.000071 0.000093 -0.015937
v 0.000071 0.188371 -0.015937
v 0.013713 0.750968 0.003173
v 0.014565 0.561305 -0.017476
v 0.009717 0.750968 -0.006473
v 0.003318 0.561305 -0.022136
v 0.000071 0.750968 -0.010469
v 0.014565 0.561305 -0.017476
v 0.000071 0.750968 -0.010469
v 0.009717 0.750968 -0.006473
v 0.000071 0.938215 -0.012948
vt 4.500000 -1.500055
vt 3.497082 -1.500054
vt 4.500000 -1.000175
vt 3.497082 -1.000173
vt 3.497082 -0.500209
vt 2.501650 -0.500209
vt 3.497082 0.000046
vt 2.501650 0.000046
vt 3.497082 0.499927
vt 2.501650 0.499927
vt 3.497082 0.999825
vt 2.501650 0.999825
vt 3.497082 1.500082
vt 2.501650 1.500082
vt 3.497082 2.000048
vt 2.501650 2.000048
vt 3.497082 2.499946
vt 2.501650 2.499946
vt -1.499623 2.499946
vt -0.497197 2.499946
vt -1.499623 2.000048
vt -0.497197 2.000048
vt -1.499623 1.500082
vt -0.497197 1.500082
vt -1.499623 0.999825
vt -0.497197 0.999825
vt -1.499623 0.499927
vt -0.497197 0.499927
vt -1.499623 0.000046
vt -0.497197 0.000046
vt -1.499623 -0.500209
vt -0.497197 -0.500209
vt -1.499623 -0.500209
vt -0.497197 -1.000173
vt -1.499623 -1.000173
vt -0.497197 -1.000173
vt -1.499623 -1.500054
vt -0.497197 -1.000173
vt -0.497197 -1.500054
vt -0.497197 -1.000173
vt 0.500234 -1.000173
vt -0.497197 -0.500209
vt 0.500234 -0.500209
vt -0.497197 -0.500209
vt 0.500234 0.000046
vt -0.497197 0.000046
vt 0.500234 0.499927
vt -0.497197 0.499927
vt 0.500234 0.999825
vt -0.497197 0.999825
vt 0.500234 1.500082
vt -0.497197 1.500082
vt 0.500234 2.000048
vt -0.497197 2.000048
vt 0.500234 2.499946
vt -0.497197 2.499946
vt -3.500000 2.499946
vt -2.497573 2.499946
vt -3.500000 2.000048
vt -2.497573 2.000048
vt -3.500000 1.500082
vt -2.497573 1.500082
vt -3.500000 0.999825
vt -2.497573 0.999825
vt -3.500000 0.499927
vt -2.497573 0.499927
vt -3.500000 0.000046
vt -2.497573 0.000046
vt -3.500000 -0.500209
vt -2.497573 -0.500209
vt -3.500000 -0.500209
vt -2.497573 -1.000173
vt -3.500000 -1.000173
vt -2.497573 -1.000173
vt -3.500000 -1.500054
vt -2.497573 -1.500054
vt -2.497573 2.499946
vt -1.499623 2.499946
vt -2.497573 2.000048
vt -1.499623 2.000048
vt -2.497573 1.500082
vt -1.499623 1.500082
vt -2.497573 0.999825
vt -1.499623 0.999825
vt -2.497573 0.499927
vt -1.499623 0.499927
vt -2.497573 0.000046
vt -1.499623 0.000046
vt -2.497573 -0.500209
vt -1.499623 -0.500209
vt -2.497573 -0.500209
vt -1.499623 -1.000173
vt -2.497573 -1.000173
vt -1.499623 -1.000173
vt -2.497573 -1.500054
vt -1.499623 -1.500054
vt 3.497082 -1.500054
vt 2.501650 -1.500054
vt 3.497082 -1.000173
vt 2.501650 -1.500054
vt 2.501650 -1.000173
vt 1.510534 -1.500054
vt 2.501650 -1.000173
vt 1.510534 -1.000173
vt 1.510534 -0.500209
vt 0.500234 -0.500209
vt 1.510534 0.000046
vt 0.500234 0.000046
vt 1.510534 0.499927
vt 0.500234 0.499927
vt 1.510534 0.999825
vt 0.500234 0.999825
vt 1.510534 1.500082
vt 0.500234 1.500082
vt 1.510534 2.000048
vt 0.500234 2.000048
vt 1.510534 2.499946
vt 0.500234 2.499946
vt 3.497082 -1.000173
vt 2.501650 -1.000173
vt 2.501650 -0.500209
vt 1.510534 -0.500209
vt 2.501650 0.000046
vt 1.510534 0.000046
vt 2.501650 0.499927
vt 1.510534 0.499927
vt 2.501650 0.999825
vt 1.510534 0.999825
vt 2.501650 1.500082
vt 1.510534 1.500082
vt 2.501650 2.000048
vt 1.510534 2.000048
vt 2.501650 2.499946
vt 1.510534 2.499946
vt 4.500000 -1.000175
vt 3.497082 -0.500209
vt 4.500000 -0.500209
vt 3.497082 -0.500209
vt 4.500000 0.000048
vt 3.497082 0.000046
vt 4.500000 0.499928
vt 3.497082 0.499927
vt 4.500000 0.999827
vt 3.497082 0.999825
vt 4.500000 1.500082
vt 3.497082 1.500082
vt 4.500000 2.000046
vt 3.497082 2.000048
vt 4.500000 2.499945
vt 3.497082 2.499946
vt 0.500234 -0.500209
vt 1.510534 -1.000173
vt 0.500234 -1.000173
vt 1.510534 -1.500054
vt 0.500234 -1.500054
vt 1.510534 -1.000173
vt 0.500234 -1.500054
vt 0.500234 -1.000173
vt -0.497197 -1.500054
vn 0.3827 0.0000 -0.9239
vn 0.4086 0.0000 -0.9127
vn 0.7962 0.0032 -0.6050
vn 0.9915 0.0156 -0.1286
vn 0.9341 0.0328 0.3555
vn 0.7072 0.0350 0.7061
vn 0.7063 0.0350 0.7071
vn 0.0086 0.0196 0.9998
vn -0.0087 0.0190 0.9998
vn -0.6988 -0.0145 0.7151
vn -0.7151 -0.0156 0.6988
vn -0.9988 -0.0475 0.0077
vn -0.9988 -0.0480 -0.0077
vn -0.7053 -0.0597 -0.7063
vn -0.7063 -0.0597 -0.7054
vn -0.3821 -0.0542 -0.9225
vn -0.3822 -0.0542 -0.9225
vn -0.3820 -0.0594 -0.9222
vn -0.7038 -0.0594 -0.7078
vn -0.7079 -0.0593 -0.7038
vn -0.9988 -0.0475 -0.0041
vn -0.9988 -0.0474 0.0041
vn -0.7087 -0.0356 0.7046
vn -0.7046 -0.0356 0.7087
vn 0.0000 -0.0306 0.9995
vn 0.7087 -0.0356 0.7046
vn 0.7046 -0.0356 0.7086
vn 0.5492 -0.0222 0.8354
vn 0.9988 -0.0474 0.0042
vn 0.8294 -0.0452 0.5568
vn 0.8388 -0.0457 0.5425
vn 0.7038 -0.0594 -0.7078
vn 0.0110 -0.0017 0.9999
vn 0.3820 -0.0594 -0.9222
vn 0.3075 -0.0478 0.9503
vn 0.3825 -0.0365 -0.9232
vn 0.9730 -0.0114 -0.2303
vn 0.9148 -0.0033 -0.4038
vn 0.8360 -0.0027 0.5487
vn 1.0000 0.0039 0.0040
vn 0.5531 0.0060 0.8331
vn 0.7050 0.0160 0.7090
vn 0.7092 0.0159 0.7048
vn 0.0000 0.0210 0.9998
vn -0.7050 0.0160 0.7090
vn -0.7092 0.0159 0.7049
vn -1.0000 0.0039 0.0040
vn -1.0000 0.0038 -0.0042
vn -0.7091 -0.0082 -0.7050
vn -0.7050 -0.0082 -0.7092
vn -0.3827 -0.0122 -0.9238
vn -0.3825 0.0268 -0.9235
vn -0.7120 0.0168 -0.7020
vn -0.7020 0.0172 -0.7119
vn -0.9999 -0.0087 0.0078
vn -0.9999 -0.0082 -0.0081
vn -0.7039 -0.0291 0.7096
vn -0.7098 -0.0289 0.7038
vn -0.0020 -0.0325 0.9995
vn 0.0020 -0.0325 0.9995
vn 0.7021 -0.0172 0.7119
vn 0.7121 -0.0168 0.7019
vn 0.5614 -0.0028 0.8275
vn 0.9999 0.0087 -0.0078
vn 0.8240 0.0181 0.5662
vn 0.7098 0.0289 -0.7038
vn 0.9784 0.0851 0.1885
vn 0.3825 0.0333 -0.9233
vn 0.3825 0.0333 -0.9234
vn -0.3826 0.0181 -0.9237
vn -0.7038 0.0266 -0.7098
vn -0.7098 0.0268 -0.7039
vn -0.9992 0.0402 -0.0040
vn -0.9992 0.0403 0.0037
vn -0.7072 0.0489 0.7053
vn -0.7055 0.0489 0.7070
vn 0.0021 0.0475 0.9988
vn -0.0020 0.0475 0.9988
vn 0.7097 0.0368 0.7035
vn 0.7038 0.0370 0.7095
vn 0.5544 0.0165 0.8320
vn 0.9997 0.0233 0.0037
vn 0.8375 0.0140 0.5463
vn 0.8311 0.0139 0.5559
vn 0.7061 0.0146 -0.7079
vn 0.9769 0.0296 0.2114
vn 0.3826 0.0116 -0.9238
vn 0.3827 0.0116 -0.9238
vn 0.3825 -0.0271 -0.9235
vn 0.0164 -0.0012 0.9998
vn 0.3827 -0.0272 -0.9235
vn 0.6949 -0.0336 -0.7183
vn 0.6674 -0.0328 -0.7439
vn 0.3827 -0.0102 -0.9238
vn 0.0572 -0.0021 0.9984
vn 0.7975 -0.0020 -0.6033
vn 0.9901 0.0067 -0.1402
vn 0.9339 0.0094 0.3574
vn 0.7152 -0.0104 0.6988
vn 0.6990 -0.0115 0.7150
vn 0.0042 -0.0375 0.9993
vn -0.0041 -0.0377 0.9993
vn -0.7107 -0.0350 0.7026
vn -0.7028 -0.0353 0.7105
vn -0.9999 -0.0045 -0.0122
vn -0.9999 -0.0057 0.0119
vn -0.6986 0.0354 -0.7146
vn -0.7148 0.0343 -0.6984
vn -0.3822 0.0502 -0.9227
vn 0.9238 0.0091 -0.3827
vn 0.9237 -0.0141 -0.3827
vn 0.9907 -0.0238 -0.1342
vn 0.9353 -0.0374 0.3517
vn 0.7002 -0.0236 0.7135
vn 0.7135 -0.0244 0.7002
vn -0.0128 0.0146 0.9998
vn 0.0130 0.0132 0.9998
vn -0.7123 0.0512 0.6999
vn -0.6998 0.0506 0.7125
vn -0.9979 0.0653 0.0002
vn -0.9979 0.0653 -0.0005
vn -0.7127 0.0492 -0.6997
vn -0.6995 0.0484 -0.7130
vn -0.3826 0.0304 -0.9234
vn -0.3825 0.0304 -0.9234
vn 0.9238 0.0000 -0.3827
vn 0.0385 0.0000 0.9992
vn 1.0000 0.0000 -0.0001
vn 0.5556 0.0000 0.8314
vn 0.7071 0.0000 0.7070
vn 0.0000 0.0000 1.0000
vn -0.7071 0.0000 0.7071
vn -1.0000 0.0000 -0.0001
vn -0.7071 0.0000 -0.7071
vn -0.3827 0.0000 -0.9239
vn 0.9229 0.0457 -0.3823
vn 0.3820 0.0632 -0.9220
vn 0.0161 0.0027 0.9998
vn 0.3821 0.0633 -0.9219
vn 0.6772 0.0439 -0.7344
vn 0.3826 0.0263 -0.9235
vn 0.3827 -0.0122 -0.9238
usemtl 0000000030330AF8.png
s 1
f 233/233/233 234/234/233 235/235/234
f 234/234/233 236/236/235 235/235/234
f 235/235/234 236/236/235 237/237/236
f 236/236/235 238/238/237 237/237/236
f 237/237/236 238/238/237 239/239/238
f 238/238/237 240/240/239 239/239/238
f 239/239/238 240/240/239 241/241/240
f 240/240/239 242/242/241 241/241/240
f 241/241/240 242/242/241 243/243/242
f 242/242/241 244/244/243 243/243/242
f 243/243/242 244/244/243 245/245/244
f 244/244/243 246/246/245 245/245/244
f 245/245/244 246/246/245 247/247/246
f 246/246/245 248/248/247 247/247/246
f 247/247/246 248/248/247 249/249/248
f 248/248/247 250/250/249 249/249/248
f 251/251/250 252/252/250 253/253/251
f 252/252/250 254/254/252 253/253/251
f 253/253/251 254/254/252 255/255/253
f 254/254/252 256/256/254 255/255/253
f 255/255/253 256/256/254 257/257/255
f 256/256/254 258/258/256 257/257/255
f 257/257/255 258/258/256 259/259/257
f 258/258/256 260/260/257 259/259/257
f 259/259/257 260/260/257 261/261/258
f 260/260/257 262/262/259 261/261/258
f 261/261/258 262/262/259 263/263/260
f 262/262/259 264/264/261 263/263/260
f 263/263/260 264/264/261 265/265/262
f 264/264/261 266/266/263 265/265/262
f 265/265/262 266/266/263 267/267/264
f 266/266/263 268/268/265 267/267/264
f 267/267/264 268/268/265 269/269/266
f 268/268/265 270/270/267 269/269/266
f 269/269/266 270/270/267 271/271/268
f 270/270/267 272/272/269 271/271/268
f 271/271/268 272/272/269 273/273/270
f 272/272/269 274/274/271 273/273/270
f 273/273/270 274/274/271 275/275/272
f 274/274/271 276/276/273 275/275/272
f 275/275/272 276/276/273 277/277/274
f 276/276/273 278/278/275 277/277/274
f 277/277/274 278/278/275 279/279/276
f 278/278/275 280/280/276 279/279/276
f 279/279/276 280/280/276 281/281/277
f 280/280/276 282/282/278 281/281/277
f 281/281/277 282/282/278 283/283/279
f 282/282/278 284/284/280 283/283/279
f 283/283/279 284/284/280 285/285/281
f 284/284/280 286/286/282 285/285/281
f 285/285/281 286/286/282 287/287/283
f 286/286/282 288/288/283 287/287/283
f 289/289/284 290/290/284 291/291/285
f 290/290/284 292/292/286 291/291/285
f 291/291/285 292/292/286 293/293/287
f 292/292/286 294/294/288 293/293/287
f 293/293/287 294/294/288 295/295/289
f 294/294/288 296/296/290 295/295/289
f 295/295/289 296/296/290 297/297/291
f 296/296/290 298/298/292 297/297/291
f 297/297/291 298/298/292 299/299/293
f 298/298/292 300/300/294 299/299/293
f 299/299/293 300/300/294 301/301/295
f 300/300/294 302/302/296 301/301/295
f 301/301/295 302/302/296 303/303/297
f 302/302/296 304/304/297 303/303/297
f 303/303/297 304/304/297 305/305/298
f 304/304/297 306/306/299 305/305/298
f 305/305/298 306/306/299 307/307/300
f 306/306/299 308/308/301 307/307/300
f 309/309/302 310/310/302 311/311/303
f 310/310/302 312/312/304 311/311/303
f 311/311/303 312/312/304 313/313/305
f 312/312/304 314/314/306 313/313/305
f 313/313/305 314/314/306 315/315/307
f 314/314/306 316/316/308 315/315/307
f 315/315/307 316/316/308 317/317/309
f 316/316/308 318/318/310 317/317/309
f 317/317/309 318/318/310 319/319/311
f 318/318/310 320/320/312 319/319/311
f 319/319/311 320/320/312 321/321/313
f 320/320/312 322/322/314 321/321/313
f 321/321/313 322/322/314 323/323/315
f 322/322/314 324/324/316 323/323/315
f 323/323/315 324/324/316 325/325/317
f 324/324/316 326/326/318 325/325/317
f 325/325/317 326/326/318 327/327/319
f 326/326/318 328/328/320 327/327/319
f 329/329/321 330/330/322 331/331/323
f 330/330/322 332/332/324 331/331/323
f 331/331/323 332/332/324 333/333/325
f 332/332/324 334/334/326 333/333/325
f 333/333/325 334/334/326 335/335/327
f 334/334/326 336/336/328 335/335/327
f 335/335/327 336/336/328 337/337/329
f 336/336/328 338/338/330 337/337/329
f 337/337/329 338/338/330 339/339/331
f 338/338/330 340/340/332 339/339/331
f 339/339/331 340/340/332 341/341/333
f 340/340/332 342/342/334 341/341/333
f 341/341/333 342/342/334 343/343/335
f 342/342/334 344/344/336 343/343/335
f 343/343/335 344/344/336 345/345/337
f 344/344/336 346/346/338 345/345/337
f 345/345/337 346/346/338 347/347/339
f 346/346/338 348/348/340 347/347/339
f 347/347/339 348/348/340 349/349/341
f 348/348/340 350/350/341 349/349/341
f 351/351/342 352/352/343 353/353/344
f 352/352/343 354/354/345 353/353/344
f 353/353/344 354/354/345 355/355/346
f 354/354/345 356/356/347 355/355/346
f 355/355/346 356/356/347 357/357/348
f 356/356/347 358/358/349 357/357/348
f 357/357/348 358/358/349 359/359/350
f 358/358/349 360/360/351 359/359/350
f 359/359/350 360/360/351 361/361/352
f 360/360/351 362/362/353 361/361/352
f 361/361/352 362/362/353 363/363/354
f 362/362/353 364/364/355 363/363/354
f 363/363/354 364/364/355 365/365/356
f 364/364/355 366/366/357 365/365/356
f 367/367/358 368/368/359 369/369/360
f 368/368/359 370/370/361 369/369/360
f 369/369/360 370/370/361 371/371/362
f 370/370/361 372/372/362 371/371/362
f 371/371/362 372/372/362 373/373/363
f 372/372/362 374/374/363 373/373/363
f 373/373/363 374/374/363 375/375/364
f 374/374/363 376/376/364 375/375/364
f 375/375/364 376/376/364 377/377/365
f 376/376/364 378/378/365 377/377/365
f 377/377/365 378/378/365 379/379/366
f 378/378/365 380/380/366 379/379/366
f 379/379/366 380/380/366 381/381/367
f 380/380/366 382/382/367 381/381/367
f 383/383/368 384/384/368 385/385/368
f 386/386/369 387/387/370 388/388/371
f 387/387/370 389/389/372 388/388/371
f 388/388/371 389/389/372 390/390/373
f 389/389/372 391/391/374 390/390/373
